<?xml version="1.0" encoding="UTF-8"?>
<svg id="Layer_2" data-name="Layer 2" xmlns="http://www.w3.org/2000/svg" viewBox="0 0 173.83 95.89">
  <defs>
    
  </defs>
  <g id="Layer_1-2" data-name="Layer 1">
    <g>
      <path class="cls-2" d="M0,35.99h12.69c5.7,0,8.82,3.84,8.82,8.43s-3.12,8.32-8.82,8.32h-6.15v8.59H0v-25.34ZM11.82,41.49h-5.28v5.7h5.28c1.75,0,3.04-1.1,3.04-2.81s-1.29-2.89-3.04-2.89Z"></path>
      <path class="cls-2" d="M38.23,35.57c7.75,0,13.53,5.4,13.53,13.11s-5.78,13.11-13.53,13.11-13.56-5.4-13.56-13.11,5.81-13.11,13.56-13.11ZM38.23,41.34c-4.22,0-6.92,3.19-6.92,7.33s2.7,7.33,6.92,7.33,6.88-3.23,6.88-7.33-2.7-7.33-6.88-7.33Z"></path>
      <path class="cls-2" d="M71.32,45.45l-3.84,15.88h-6.92l-7.26-25.34h7.33l3.84,16.91,4.33-16.91h5.01l4.33,16.91,3.8-16.91h7.37l-7.26,25.34h-6.92l-3.84-15.88Z"></path>
      <path class="cls-2" d="M93.67,35.99h18.58v5.51h-12.04v4.22h11.78v5.55h-11.78v4.56h12.04v5.51h-18.58v-25.34Z"></path>
      <path class="cls-2" d="M128.21,52.74h-3.34v8.59h-6.54v-25.34h12.69c5.62,0,8.82,3.72,8.82,8.43,0,4.41-2.7,6.76-5.05,7.6l5.17,9.31h-7.48l-4.26-8.59ZM130.03,41.49h-5.17v5.7h5.17c1.71,0,3.15-1.1,3.15-2.85s-1.44-2.85-3.15-2.85Z"></path>
      <path class="cls-2" d="M146.6,52.85c1.82,1.82,4.64,3.34,8.09,3.34,2.24,0,3.61-.95,3.61-2.17,0-1.44-1.63-2.01-4.33-2.58-4.18-.84-10.03-1.9-10.03-7.9,0-4.26,3.61-7.94,10.11-7.94,4.07,0,7.6,1.22,10.3,3.53l-3.57,4.67c-2.13-1.75-4.9-2.62-7.14-2.62s-3,.87-3,1.98c0,1.33,1.56,1.79,4.37,2.32,4.18.87,9.96,2.09,9.96,7.83,0,5.09-3.76,8.47-10.56,8.47-5.13,0-8.7-1.6-11.25-4.03l3.46-4.9Z"></path>
    </g>
    <g>
      <polygon class="cls-2" points="168.66 39.44 168.66 36.45 167.48 36.45 167.48 36.14 170.22 36.14 170.22 36.45 169.03 36.45 169.03 39.44 168.66 39.44"></polygon>
      <polygon class="cls-2" points="173.52 36.08 173.83 36.08 173.83 39.44 173.46 39.44 173.46 36.88 172.4 38.94 172.15 38.94 171.09 36.88 171.09 39.44 170.71 39.44 170.71 36.08 171.03 36.08 172.27 38.5 173.52 36.08"></polygon>
    </g>
    <path class="cls-1" d="M81.68,0h0c-18.33,0-34.24,10.29-42.31,25.4l6.59,3.81c6.75-12.84,20.21-21.6,35.72-21.6h0c15.51,0,28.97,8.76,35.72,21.6l6.59-3.81C115.92,10.29,100.01,0,81.68,0Z"></path>
    <path class="cls-1" d="M81.68,95.89h0c-18.33,0-34.24-10.29-42.31-25.4l6.59-3.81c6.75,12.84,20.21,21.6,35.72,21.6h0c15.51,0,28.97-8.76,35.72-21.6l6.59,3.81c-8.07,15.11-23.99,25.4-42.31,25.4Z"></path>
  </g>
</svg>